Coordinates
version=1
nRows=14
nColumns=36
inDegrees=yes

Units are S.I. units (second, meters, Newtons, ...)
If the header above contains a line with 'inDegrees', this indicates whether rotational values are in degrees (yes) or radians (no).

endheader
time	pelvis_tilt	pelvis_list	pelvis_rotation	pelvis_tx	pelvis_ty	pelvis_tz	hip_flexion_r	hip_adduction_r	hip_rotation_r	knee_angle_r	knee_angle_r_beta	ankle_angle_r	subtalar_angle_r	mtp_angle_r	hip_flexion_l	hip_adduction_l	hip_rotation_l	knee_angle_l	knee_angle_l_beta	ankle_angle_l	subtalar_angle_l	mtp_angle_l	lumbar_extension	lumbar_bending	lumbar_rotation	arm_flex_r	arm_add_r	arm_rot_r	elbow_flex_r	pro_sup_r	arm_flex_l	arm_add_l	arm_rot_l	elbow_flex_l	pro_sup_l
      4.30000000	     -0.31980745	      2.41211815	     -0.45544507	      0.40028462	      1.00463689	     -0.05103977	      1.10676983	     -3.45967784	      9.63383659	      9.64587704	      0.16835231	      8.77967553	    -17.57431054	     -7.49999987	      1.69605087	     -1.19355830	      2.40511545	     15.61335662	      0.27250448	      8.96793304	    -12.59194614	     -7.49999987	    -11.16691589	      0.94829075	     -1.36737430	      5.37607180	     -4.30462638	      4.41782341	     27.33320442	     95.34201139	      6.76945544	     -3.94369807	      3.06060592	     31.12206524	     95.38385895
      4.30416670	     -0.24598217	      2.38489550	     -0.47838658	      0.39983422	      1.00680492	     -0.05089271	      0.96605755	     -3.45840462	      9.59748005	      9.42341744	      0.16446966	      8.63040549	    -17.62694474	     -7.49999987	      1.60637425	     -1.17865545	      2.46436808	     15.56436800	      0.27164947	      8.89186888	    -12.66681433	     -7.49999987	    -11.36939611	      1.00101087	     -1.37027214	      5.45988417	     -4.37193031	      4.42355365	     27.37394098	     95.04851443	      6.80137904	     -3.89705852	      3.23254297	     31.06129354	     95.08229319
      4.30833330	     -0.21650209	      2.35209796	     -0.50531512	      0.40005439	      1.00505582	     -0.05184477	      0.87825081	     -3.46624411	      9.59206625	      9.26053444	      0.16162682	      8.47945737	    -17.75225512	     -7.49999987	      1.57988592	     -1.14985806	      2.55154270	     15.55368728	      0.27146305	      8.90501098	    -12.84083987	     -7.49999987	    -11.49952879	      1.09735723	     -1.34256102	      5.38815104	     -4.37587217	      3.03226215	     27.67222049	    100.44922468	      6.75905351	     -3.76015686	      2.44796535	     31.24251665	    100.25116318
      4.31250000	     -0.22103490	      2.32025540	     -0.54330253	      0.39926258	      1.00440809	     -0.05130300	      0.85989231	     -3.44033287	      9.62506535	      9.16073039	      0.15988491	      8.29101187	    -17.98371449	     -7.49999987	      1.61996675	     -1.13767921	      2.67316573	     15.59059361	      0.27210719	      8.89844273	    -13.10983059	     -7.49999987	    -11.56075854	      1.15419395	     -1.35609695	      5.46858118	     -4.42834429	      3.14046943	     27.57737800	     98.77651306	      6.79360602	     -3.67535017	      2.62818486	     31.06635232	     98.59080219
      4.31666670	     -0.15991841	      2.32292701	     -0.57507994	      0.39972211	      1.00606318	     -0.05212202	      0.70205291	     -3.48105113	      9.60552268	      8.95677507	      0.15632522	      8.09414890	    -18.08511458	     -7.49999987	      1.51613073	     -1.07871168	      2.76541391	     15.50958251	      0.27069328	      8.73238450	    -13.40988198	     -7.49999987	    -11.62903009	      1.18840531	     -1.41801016	      5.49351218	     -4.51638607	      3.27077083	     27.54432136	     98.07839275	      6.76656074	     -3.63339066	      2.85376227	     30.96078004	     97.88251188
      4.32083330	     -0.12980587	      2.30374425	     -0.60341947	      0.40004150	      1.00785499	     -0.05233294	      0.53472151	     -3.49955524	      9.51322645	      8.65581705	      0.15107251	      8.03108839	    -17.82557434	     -7.49999987	      1.37256369	     -1.03975646	      2.80428088	     15.26044085	      0.26634494	      8.54812004	    -13.62740618	     -7.49999987	    -11.68167701	      1.24933362	     -1.40437511	      5.43279360	     -4.58273136	      2.84799128	     27.68594425	    100.67153732	      6.72372505	     -3.57421975	      2.80541474	     30.91271474	    100.30759498
      4.32500000	      0.00902215	      2.29004558	     -0.66261000	      0.40054502	      1.00610419	     -0.05250985	      0.21759109	     -3.50353343	      9.63084117	      8.32127097	      0.14523358	      7.83458210	    -17.95987861	     -7.49999987	      1.12817998	     -1.00219164	      2.89595696	     15.11299943	      0.26377160	      8.39566427	    -13.95644440	     -7.49999987	    -11.82550859	      1.28365309	     -1.37329238	      5.43781076	     -4.71362142	      3.43494677	     27.62294080	     98.20688591	      6.71265929	     -3.58394776	      3.48485460	     30.80104303	     97.81868046
      4.32916670	      0.07682643	      2.25376104	     -0.70603359	      0.40014508	      1.00644327	     -0.05284133	      0.01370470	     -3.49449016	      9.61814939	      8.07681892	      0.14096708	      7.80826604	    -17.85063484	     -7.49999987	      1.00521187	     -1.00625616	      2.93394533	     15.04295534	      0.26254910	      8.40705497	    -13.98182515	     -7.49999987	    -11.87464325	      1.39046043	     -1.39986576	      5.42555816	     -4.79416021	      3.04569117	     27.61622821	    100.29575163	      6.69324784	     -3.50193681	      3.33226969	     30.60800933	     99.82712292
      4.33333330	      0.17869911	      2.23567845	     -0.77899358	      0.40026559	      1.00604181	     -0.05220025	     -0.20335936	     -3.48120756	      9.72714148	      7.85234058	      0.13704920	      7.73806628	    -17.86659143	     -7.49999987	      0.82934799	     -1.01088307	      3.01430771	     14.96277766	      0.26114974	      8.37267822	    -14.16542019	     -7.49999987	    -11.98542554	      1.41574472	     -1.40167076	      5.41549133	     -4.79048611	      2.72588512	     27.63149762	    100.85426233	      6.62506128	     -3.42226661	      3.01257381	     30.55202767	    100.19655152
      4.33750000	      0.18600231	      2.21609153	     -0.81620794	      0.39980922	      1.00607742	     -0.05235827	     -0.32841498	     -3.47090965	      9.76897089	      7.59329485	      0.13252800	      7.68432480	    -17.86543284	     -7.49999987	      0.75318127	     -1.00500313	      3.11991433	     14.85610186	      0.25928789	      8.29065448	    -14.41270207	     -7.49999987	    -11.95071386	      1.45555289	     -1.47764462	      5.43092348	     -4.79960559	      2.71982632	     27.49897341	     99.96436418	      6.58570389	     -3.38474781	      3.03988021	     30.28364036	     99.30477269
      4.34166670	      0.40527808	      2.17256660	     -0.86779229	      0.39978453	      1.00662149	     -0.05167654	     -0.71486788	     -3.42402546	      9.90566098	      7.27373739	      0.12695067	      7.58569973	    -17.89981729	     -7.49999987	      0.42170625	     -1.05272980	      3.12339384	     14.67884900	      0.25619425	      8.31777428	    -14.43400796	     -7.49999987	    -12.25743773	      1.46583669	     -1.38674430	      5.41156695	     -4.93636540	      3.41452333	     27.58571897	     97.16816939	      6.64549027	     -3.46207219	      3.78853025	     30.29947279	     96.40177530
      4.34583330	      0.43316254	      2.14774986	     -0.92373147	      0.39951416	      1.00791632	     -0.05169008	     -0.85105279	     -3.40304005	      9.99918083	      7.03041654	      0.12270392	      7.50628449	    -17.83095486	     -7.49999987	      0.33068067	     -1.09322192	      3.10438790	     14.55245882	      0.25398832	      8.16440514	    -14.61369586	     -7.49999987	    -12.29501991	      1.48997088	     -1.44612343	      5.42409466	     -4.90318488	      2.66362923	     27.59271082	    100.97309725	      6.61610454	     -3.43093685	      3.21183051	     30.16164402	    100.05803202
      4.35000000	      0.51982915	      2.11769672	     -0.95106024	      0.40016686	      1.00554671	     -0.05211016	     -1.10746068	     -3.37614654	     10.15472259	      6.73869825	      0.11761247	      7.39000708	    -17.95436875	     -7.49999987	      0.14516203	     -1.11713616	      3.01342796	     14.43107974	      0.25186986	      8.14366579	    -14.76684576	     -7.49999987	    -12.35201420	      1.51448452	     -1.42964472	      5.34954268	     -4.91593352	      2.44571804	     27.64362020	    100.84828733	      6.57750233	     -3.41659526	      3.15474284	     30.09446481	     99.87133662
      4.35416670	      0.64433701	      2.12104666	     -0.93572574	      0.40059222	      1.00466000	     -0.05134448	     -1.39668410	     -3.37842218	     10.26474588	      6.49238884	      0.11331356	      7.28359243	    -18.21126299	     -7.49999987	     -0.05916984	     -1.11684918	      3.13091633	     14.32457017	      0.25001091	      7.99484317	    -15.16601256	     -7.49999987	    -12.47740416	      1.46365415	     -1.49566289	      5.35574645	     -5.07250820	      3.87758257	     27.56928355	     96.10797666	      6.54869591	     -3.63138061	      4.55813691	     30.01744522	     94.92844010
